<?xml version="1.0" encoding="UTF-8"?>
<svg xmlns="http://www.w3.org/2000/svg" width="267" height="50.777" viewBox="0 0 267 50.777">
  <g id="Group_163871" data-name="Group 163871" transform="translate(-140 -9357.001)">
    <path id="Path_12" data-name="Path 12" d="M325.9,76.837l4.025-4.365a9.986,9.986,0,0,0,3.146,2.069,10.824,10.824,0,0,0,4.337.822,8.431,8.431,0,0,0,3.458-.6,1.945,1.945,0,0,0,1.3-1.843,2.148,2.148,0,0,0-.482-1.389,4.979,4.979,0,0,0-1.9-1.191,28.982,28.982,0,0,0-4.365-1.276,22.628,22.628,0,0,1-3.741-1.36,9.4,9.4,0,0,1-3.373-2.579,6.384,6.384,0,0,1-1.389-4.224,6.7,6.7,0,0,1,1.616-4.535,10.127,10.127,0,0,1,4.139-2.835,14.425,14.425,0,0,1,5.187-.964,21.433,21.433,0,0,1,6.009.737,13.522,13.522,0,0,1,4.422,2.211l-3.458,4.705a11.536,11.536,0,0,0-2.863-1.445,11.963,11.963,0,0,0-4.11-.652,5.73,5.73,0,0,0-3.288.708,2.092,2.092,0,0,0-.964,1.729q0,1.248,1.559,1.956a28.992,28.992,0,0,0,4.847,1.5,15.962,15.962,0,0,1,6.434,2.806,6.88,6.88,0,0,1,2.41,5.754,6.8,6.8,0,0,1-1.559,4.45,9.978,9.978,0,0,1-4.139,2.92,15.368,15.368,0,0,1-5.7,1.02,20.454,20.454,0,0,1-6.718-1.049A11.23,11.23,0,0,1,325.9,76.837Z" transform="translate(-43.748 9314.945)" fill="#fff"/>
    <path id="Path_13" data-name="Path 13" d="M183.3,75.338c-2.9,3.76-6.961,5.639-12.245,5.639-9.2,0-15.14-6.249-15.14-14.124,0-8.078,6.3-14.277,15.242-14.277,5.284,0,9.755,2.185,12.448,6.148l-5.639,3.1a8.494,8.494,0,0,0-6.758-3.049c-5.182,0-8.485,3.506-8.485,8.18,0,4.573,3.2,7.825,8.18,7.825a8.579,8.579,0,0,0,7.062-3.1Z" transform="translate(41.316 9314.943)" fill="#fff"/>
    <path id="Path_14" data-name="Path 14" d="M248.687,66.751a14.15,14.15,0,1,1-14.328-14.175A14.055,14.055,0,0,1,248.687,66.751Zm-21.492,0c0,4.573,2.9,7.825,7.266,7.825,4.166,0,7.417-3.049,7.417-7.774,0-4.572-3-7.824-7.417-7.824C230.244,58.978,227.2,62.28,227.2,66.751Z" transform="translate(9.053 9314.943)" fill="#fff"/>
    <path id="Path_15" data-name="Path 15" d="M385.717,54h6.758V80.979h-6.758Z" transform="translate(-73.68 9314.23)" fill="#fff"/>
    <path id="Path_16" data-name="Path 16" d="M485.005,32.4h6.757V45.935c2.591-2.235,5.081-3.455,7.977-3.455,5.081,0,9.247,3.3,9.247,9.856V70.17h-6.757V57.417c0-5.487-.66-8.739-4.624-8.739a5.348,5.348,0,0,0-4.572,2.642c-1.372,2.134-1.27,4.573-1.27,7.367V70.17h-6.757Z" transform="translate(-123.363 9325.039)" fill="#fff"/>
    <path id="Path_17" data-name="Path 17" d="M548.743,40.5H555.5v6.744h6.758v5.792H555.5V74.222h-6.757Z" transform="translate(-155.258 9320.986)" fill="#fff"/>
    <path id="Path_18" data-name="Path 18" d="M434.064,53.287v2.947a11.9,11.9,0,0,0-8.536-3.658c-6.859,0-12.6,5.487-12.6,13.819,0,8.078,5.69,13.871,12.956,13.871a10.853,10.853,0,0,0,8.129-3.3v1.851a7.565,7.565,0,0,1-7.872,7.824,8.525,8.525,0,0,1-6.754-3.1L414.053,87.2a14.482,14.482,0,0,0,11.936,5.639c8.785,0,14.832-6.249,14.832-14.124V53.287Zm-6.91,20.78a7.29,7.29,0,0,1-7.417-7.621c0-4.166,2.845-7.672,7.316-7.672s7.367,3.353,7.367,7.723C434.42,71.07,431.32,74.068,427.154,74.068Z" transform="translate(-87.297 9314.943)" fill="#fff"/>
    <path id="Path_19" data-name="Path 19" d="M304.529,52.576H303c-6.859,0-12.6,5.487-12.6,13.819l0,13.871h6.811V66.446c0-4.166,2.845-7.672,7.316-7.672Z" transform="translate(-25.982 9314.943)" fill="#fff"/>
    <g id="Group_6" data-name="Group 6" transform="translate(140 9371.498)">
      <path id="Path_20" data-name="Path 20" d="M56.536,86.823l-7.584-4.378A5.082,5.082,0,0,1,46.42,78.06V69.3L54,73.679a5.082,5.082,0,0,1,2.532,4.384v8.759m5.058,8.762V78.064A10.113,10.113,0,0,0,56.537,69.3L41.361,60.539V78.06a10.113,10.113,0,0,0,5.057,8.763l15.176,8.762Z" transform="translate(-41.361 -60.539)" fill="#fff"/>
      <path id="Path_21" data-name="Path 21" d="M97.044,86.823V78.066a5.082,5.082,0,0,1,2.531-4.385l7.586-4.38v8.757a5.081,5.081,0,0,1-2.531,4.385l-7.586,4.38m-5.058,8.762,15.174-8.761a10.112,10.112,0,0,0,5.06-8.761V60.539L97.046,69.3a10.115,10.115,0,0,0-5.06,8.762V95.585Z" transform="translate(-66.694 -60.539)" fill="#fff"/>
    </g>
    <path id="Path_22" data-name="Path 22" d="M66.647,46.7h0a4.975,4.975,0,0,1-2.519-.679l-7.585-4.379,7.583-4.378a5.106,5.106,0,0,1,2.543-.68,4.977,4.977,0,0,1,2.52.679l7.585,4.379L69.19,46.017a5.1,5.1,0,0,1-2.543.68m0,5.058A10.168,10.168,0,0,0,71.715,50.4l15.176-8.761L71.716,32.879a10.112,10.112,0,0,0-10.117,0L46.424,41.638,61.6,50.4a10.07,10.07,0,0,0,5.048,1.357Z" transform="translate(96.105 9325.479)" fill="#fff"/>
  </g>
</svg>
