<svg width="216" height="34" viewBox="0 0 216 34" fill="none" xmlns="http://www.w3.org/2000/svg">
<path d="M20.5905 10C14.1855 10 9 15.1914 9 21.5695C9 27.9476 14.1855 33.1602 20.5905 33.1602C26.9956 33.1602 32.1705 27.9687 32.1705 21.5695C32.1705 15.1703 27.0698 10 20.5905 10ZM27.2607 27.0152C27.2607 27.0152 26.7198 24.6208 25.8715 23.1799C25.4049 22.4171 24.6838 21.7814 23.7188 21.8026C23.0295 21.8026 22.4463 22.1734 21.7146 23.2011C21.2692 23.8262 20.5905 25.3942 20.5905 25.3942C20.5905 25.3942 19.9119 23.8262 19.4665 23.2011C18.7242 22.1734 18.1409 21.8132 17.4623 21.8026C16.4867 21.7814 15.7762 22.4171 15.299 23.1799C14.44 24.6208 13.9098 27.0152 13.9098 27.0152H13.1251L17.3244 13.2632L20.5693 23.9957L20.5905 24.0169L20.6117 23.9957L23.8461 13.2632L28.0454 27.0152H27.2713H27.2607Z" fill="#005FBE"/>
<path d="M40.1704 25.401L42.4123 17.735H46.3066L47.2749 20.9949L50.1062 17.7034H54.2216L52.0744 25.3904L48.9695 25.401L50.1062 21.4365L46.5066 25.401H44.9594L43.8332 21.1736L42.5912 25.401H40.1704Z" fill="black"/>
<path d="M67.5671 17.7034L77.124 17.735L76.5556 20.2062H73.2718L71.9245 25.401H68.9038L70.1563 20.2272H66.925L67.5671 17.7034Z" fill="black"/>
<path d="M96.1129 20.9844H92.8291L93.2185 19.5122L96.3866 19.5332C96.3866 19.5332 97.0076 19.4807 96.955 20.1116C96.9129 20.8372 96.1235 20.9844 96.1235 20.9844M100.039 19.733C100.26 17.8928 98.1338 17.7456 98.1338 17.7456H90.7767L88.5874 25.4115H91.4397L92.0923 23.1086L94.3763 23.1506C95.2078 23.0665 95.2393 23.6449 95.2393 23.6449C95.2393 23.6449 95.2288 24.1602 95.1657 24.707C95.1236 25.3064 95.6919 25.401 95.6919 25.401H98.7863C98.5337 25.2012 98.5337 24.8121 98.5337 24.5598C98.5337 24.3705 98.8495 23.8973 98.7442 23.1717C98.6706 22.5302 97.9443 22.3725 97.8391 22.2778C97.7443 22.2358 97.8706 22.1306 97.8706 22.1306C97.8706 22.1306 99.8283 21.5733 100.018 19.733H100.039Z" fill="black"/>
<path d="M114.846 17.7351H117.804L116.383 23.2979H121.183L120.614 25.4011H112.868L114.846 17.7351Z" fill="black"/>
<path d="M128.456 22.2358H126.498L126.456 22.2147L127.972 19.9539L128.487 22.2147L128.456 22.2358ZM130.54 17.7035H126.951L121.751 25.4115H124.34L125.225 24.0655L125.246 24.034H128.919V24.0655L129.245 25.4115H132.287L130.529 17.7035H130.54Z" fill="black"/>
<path d="M61.4732 23.4451C60.1575 24.1181 58.1577 23.8867 57.9367 22.5512C57.7051 21.2683 58.7156 19.9854 59.5365 19.6804C60.126 19.4806 60.5996 19.3755 61.0311 19.4281C61.9573 19.4281 62.8941 19.8697 63.0204 20.5743C63.473 22.6879 61.189 23.5818 61.4837 23.4451M66.2516 20.3324C65.8096 18.2188 63.3151 17.4196 61.0522 17.4196C60.4628 17.4196 59.7891 17.4932 59.2524 17.6088C56.9579 18.061 54.0634 20.1221 54.5792 22.7826C55.0002 25.0119 58.0209 26.2107 61.4206 25.5482C64.6097 24.9383 66.6832 22.4987 66.2516 20.3534V20.3324Z" fill="black"/>
<path d="M83.6921 23.4451C82.3764 24.1181 80.3556 23.8867 80.1556 22.5512C79.9346 21.2683 80.9345 19.9854 81.7659 19.6804C82.3343 19.4806 82.829 19.3755 83.2711 19.4281C84.1867 19.4281 85.1024 19.8697 85.2393 20.5743C85.7024 22.6879 83.4289 23.5818 83.7026 23.4451M88.4495 20.3324C88.0285 18.2188 85.534 17.4196 83.2921 17.4196C82.6922 17.4196 82.008 17.4932 81.4712 17.6088C79.1873 18.061 76.2928 20.1221 76.7875 22.7826C77.219 25.0119 80.2503 26.2107 83.6394 25.5482C86.8181 24.9383 88.8915 22.4987 88.4389 20.3534L88.4495 20.3324Z" fill="black"/>
<path d="M107.837 23.4451C106.532 24.1182 104.543 23.8868 104.311 22.5513C104.08 21.2684 105.079 19.9855 105.911 19.6805C106.606 19.4281 106.89 19.3756 107.427 19.3861C108.353 19.4597 109.268 19.8803 109.416 20.5849C109.847 22.6985 107.595 23.5924 107.848 23.4557M112.594 20.343C112.173 18.2293 109.679 17.4301 107.448 17.4301C106.837 17.4301 106.174 17.5038 105.616 17.6194C103.353 18.0716 100.459 20.1327 100.964 22.7932C101.385 25.0225 104.416 26.2213 107.795 25.5588C110.984 24.9489 113.058 22.5092 112.605 20.364L112.594 20.343Z" fill="black"/>
<path d="M139.896 25.6427C137.96 25.6427 136.875 25.0013 136.875 23.6553C136.875 23.4765 136.897 23.2872 136.928 23.0874V23.0559H138.202V23.1084C138.16 23.2241 138.149 23.3398 138.149 23.445C138.149 24.2336 138.917 24.6858 140.201 24.6858C141.791 24.6858 142.833 24.0654 143.043 23.2452C143.064 23.161 143.075 23.0769 143.075 23.0033C143.096 22.2567 141.843 22.162 140.559 22.0043C139.286 21.8466 137.981 21.5942 137.97 20.3849C137.97 20.2166 137.991 20.0273 138.054 19.8275C138.454 18.3238 139.97 17.4615 142.085 17.4615C143.527 17.4615 144.98 17.8506 144.99 19.2597C144.99 19.4174 144.969 19.5857 144.938 19.7644V19.796H143.675V19.7434C143.696 19.6593 143.706 19.5857 143.706 19.5121C143.706 18.6708 142.791 18.4184 141.643 18.4184C140.559 18.4184 139.496 18.9547 139.275 19.7855C139.254 19.8591 139.244 19.9327 139.244 20.0063C139.244 20.3113 139.444 20.6057 140.18 20.7319L142.927 21.2261C143.896 21.3944 144.359 21.9202 144.359 22.6142C144.359 22.7825 144.327 22.9612 144.285 23.1505C143.864 24.7068 142.212 25.6427 139.917 25.6427H139.896Z" fill="black"/>
<path d="M210.373 25.6427C208.437 25.6427 207.353 25.0013 207.353 23.6553C207.353 23.4765 207.374 23.2872 207.405 23.0874V23.0559H208.679V23.1084C208.637 23.2241 208.626 23.3398 208.626 23.445C208.626 24.2336 209.394 24.6858 210.679 24.6858C212.268 24.6858 213.31 24.0654 213.52 23.2452C213.541 23.161 213.552 23.0769 213.552 23.0033C213.573 22.2567 212.32 22.162 211.036 22.0043C209.763 21.8466 208.458 21.5942 208.447 20.3849C208.447 20.2166 208.468 20.0273 208.531 19.8275C208.931 18.3238 210.447 17.4615 212.563 17.4615C214.004 17.4615 215.457 17.8506 215.467 19.2597C215.467 19.4174 215.446 19.5857 215.415 19.7644V19.796H214.152V19.7434C214.173 19.6593 214.183 19.5857 214.183 19.5121C214.183 18.6708 213.268 18.4184 212.12 18.4184C211.036 18.4184 209.973 18.9547 209.752 19.7855C209.731 19.8591 209.721 19.9327 209.721 20.0063C209.721 20.3113 209.921 20.6057 210.657 20.7319L213.394 21.2261C214.362 21.3944 214.825 21.9202 214.825 22.6247C214.825 22.793 214.794 22.9717 214.752 23.161C214.331 24.7174 212.678 25.6533 210.384 25.6533L210.373 25.6427Z" fill="black"/>
<path d="M149.663 25.6533C148.379 25.6533 147.506 25.3062 146.969 24.7594C146.421 24.2126 146.211 23.487 146.211 22.7404C146.211 22.3408 146.274 21.9412 146.379 21.5521C146.874 19.7119 148.59 17.472 151.842 17.472C153.126 17.472 154 17.819 154.536 18.3659C155.084 18.9127 155.294 19.6383 155.294 20.3954C155.294 20.795 155.231 21.1946 155.126 21.5837C154.631 23.4344 152.916 25.6638 149.663 25.6638V25.6533ZM149.895 24.6963C151.747 24.6963 153.368 23.4344 153.873 21.5521C153.968 21.2156 154.01 20.8896 154.01 20.5952C154.01 19.2597 153.126 18.429 151.61 18.429C149.758 18.429 148.137 19.6908 147.632 21.5732C147.537 21.9097 147.495 22.2357 147.495 22.5301C147.495 23.8656 148.379 24.6963 149.895 24.6963Z" fill="black"/>
<path d="M156.022 25.443L158.106 17.6929V17.6614H159.316L157.485 24.4861H163.274L163.021 25.443H156.032H156.022Z" fill="black"/>
<path d="M167.525 25.6428C165.778 25.6428 164.631 24.8647 164.631 23.3399C164.631 23.0244 164.683 22.6669 164.778 22.2883L166.02 17.6614H167.22L165.957 22.3619C165.883 22.6458 165.841 22.8982 165.841 23.1296C165.841 24.1075 166.473 24.6754 167.757 24.6859C169.336 24.6859 170.441 23.7921 170.83 22.3409L172.083 17.6929V17.6614H173.293L172.041 22.3093C171.451 24.5176 169.63 25.6428 167.525 25.6428Z" fill="black"/>
<path d="M176.345 25.443L178.166 18.6814H174.892L175.166 17.6614H182.902L182.628 18.6814H179.355L177.534 25.443H176.334H176.345Z" fill="black"/>
<path d="M182.765 25.443L184.849 17.6929V17.6614H186.06L183.965 25.443H182.765Z" fill="black"/>
<path d="M195.386 18.3553C194.838 17.8085 193.975 17.4615 192.691 17.4615C189.428 17.4615 187.713 19.7013 187.228 21.5416C187.123 21.9307 187.06 22.3303 187.06 22.7299C187.06 23.4765 187.271 24.2126 187.818 24.7489C188.365 25.2957 189.228 25.6427 190.512 25.6427C193.775 25.6427 195.48 23.4134 195.975 21.5626C196.08 21.1736 196.143 20.774 196.143 20.3744C196.143 19.6277 195.933 18.8916 195.386 18.3448V18.3553ZM194.722 21.5416C194.217 23.4239 192.596 24.6858 190.744 24.6858C189.228 24.6858 188.344 23.8445 188.344 22.5196C188.344 22.2251 188.386 21.9097 188.481 21.5626C188.986 19.6803 190.607 18.4184 192.46 18.4184C193.975 18.4184 194.859 19.2597 194.859 20.5847C194.859 20.8791 194.817 21.1946 194.722 21.5416Z" fill="black"/>
<path d="M202.721 25.443L199.784 18.9338L198.037 25.443H196.837L198.932 17.6614H200.51L203.447 24.1706L205.194 17.6929V17.6614H206.405L204.31 25.443H202.731H202.721Z" fill="black"/>
</svg>
